PathFileType	4	(X/Y/Z)	/Users/itak/Documents/Research/Walk-IL/dataset/trc/00423_00012.trc
DataRate	CameraRate	NumFrames	NumMarkers	Units	OrigDataRate	OrigDataStartFrame	OrigNumFrames
100.000000	100.000000	4	53	mm	100.000000	490	560
Frame#	Time	RPSI			LPSI			L3			STRN			T10			C7			CLAV			RBAK			LBAK			LSHO			LUPA			LAEL			LAOL			LWTS			LWPS			LFRA			LHPS			LHTS			RSHO			RUPA			RAEL			RAOL			RWTS			RWPS			RFRA			RIFD			RHTS			RHPS			RBHD			LFHD			RFHD			LBHD			LHIP			RHIP			RASI			LASI			LKNE			LTHI			LANK			LTIP			LTOE			LMT1			LMT5			LHEE			RKNE			RTHI			RANK			RTIP			RTOE			RMT1			RMT5			RHEE			LIFD			
		X1	Y1	Z1	X2	Y2	Z2	X3	Y3	Z3	X4	Y4	Z4	X5	Y5	Z5	X6	Y6	Z6	X7	Y7	Z7	X8	Y8	Z8	X9	Y9	Z9	X10	Y10	Z10	X11	Y11	Z11	X12	Y12	Z12	X13	Y13	Z13	X14	Y14	Z14	X15	Y15	Z15	X16	Y16	Z16	X17	Y17	Z17	X18	Y18	Z18	X19	Y19	Z19	X20	Y20	Z20	X21	Y21	Z21	X22	Y22	Z22	X23	Y23	Z23	X24	Y24	Z24	X25	Y25	Z25	X26	Y26	Z26	X27	Y27	Z27	X28	Y28	Z28	X29	Y29	Z29	X30	Y30	Z30	X31	Y31	Z31	X32	Y32	Z32	X33	Y33	Z33	X34	Y34	Z34	X35	Y35	Z35	X36	Y36	Z36	X37	Y37	Z37	X38	Y38	Z38	X39	Y39	Z39	X40	Y40	Z40	X41	Y41	Z41	X42	Y42	Z42	X43	Y43	Z43	X44	Y44	Z44	X45	Y45	Z45	X46	Y46	Z46	X47	Y47	Z47	X48	Y48	Z48	X49	Y49	Z49	X50	Y50	Z50	X51	Y51	Z51	X52	Y52	Z52	X53	Y53	Z53	

491	4.9	283.2787780761719	987.5829467773438	526.8951416015625	414.6054992675781	979.7770385742188	519.1826171875	345.0616760253906	1057.483764648438	525.0962524414062	347.3592224121094	1212.733642578125	759.9212646484375	347.8541259765625	1160.69921875	513.948974609375	356.7127075195312	1410.741455078125	549.9315185546875	348.7693481445312	1331.23974609375	706.0504760742188	286.3836975097656	1265.383544921875	504.8707885742188	459.5769348144531	1372.538818359375	537.8358154296875	507.5730590820312	1387.60107421875	625.5411376953125	580.0790405273438	1271.585327148438	611.3091430664062	604.6085815429688	1076.709716796875	653.2622680664062	549.2245483398438	1049.52490234375	593.46826171875	551.2058715820312	866.3355102539062	755.511962890625	621.3374633789062	852.5530395507812	715.0787353515625	613.2915649414062	973.640869140625	679.15283203125	612.2207641601562	766.8790283203125	729.7930297851562	569.2105102539062	768.36865234375	776.806396484375	197.7124481201172	1390.28662109375	606.8705444335938	137.3771820068359	1324.276733398438	597.1489868164062	85.1683349609375	1068.801635742188	652.721435546875	175.9782867431641	1048.146728515625	627.0807495117188	123.2177810668945	900.210205078125	838.1083984375	59.21031188964844	879.719482421875	807.4671630859375	70.49560546875	1012.745056152344	696.7610473632812	119.4188919067383	736.3046875	895.1773681640625	103.4880752563477	808.093505859375	892.6383056640625	59.17416763305664	796.13037109375	842.3515625	256.6252746582031	1591.554809570312	625.5070190429688	438.0621643066406	1610.204345703125	700.562255859375	322.5400390625	1609.969848632812	740.0796508789062	401.5122680664062	1588.099487304688	558.2130737304688	529.2811279296875	967.0220947265625	604.4367065429688	170.9094390869141	962.8710327148438	611.8795166015625	228.9544067382812	971.4972534179688	744.8770141601562	489.9643859863281	964.3475952148438	721.2408447265625	506.986572265625	472.9715576171875	648.6668090820312	520.5724487304688	615.554931640625	643.0812377929688	470.9604187011719	39.3831672668457	552.85009765625	502.27783203125	242.3188323974609	601.0935668945312	402.8028869628906	40.08143997192383	767.1103515625	374.2205200195312	42.72576141357422	684.80908203125	480.0164184570312	37.89396286010742	679.4564819335938	415.7039184570312	36.83274459838867	513.56787109375	199.4682769775391	471.9237976074219	644.3378295898438	174.8224639892578	733.8194580078125	684.6980590820312	237.0179595947266	52.27134323120117	593.0457763671875	214.8083648681641	346.5234680175781	650.7640380859375	299.6868591308594	38.53813171386719	773.170654296875	331.3177795410156	42.0107421875	698.140869140625	231.6956634521484	44.00079727172852	678.6793823242188	291.8514404296875	38.8802375793457	521.4934692382812	555.812744140625	686.839599609375	750.0467529296875	
492	4.91	282.5820007324219	987.60888671875	527.6307983398438	413.8728637695312	979.698974609375	519.5277709960938	344.359375	1057.417236328125	525.6254272460938	347.4312133789062	1212.66357421875	760.4036254882812	347.0473022460938	1160.656982421875	514.6026000976562	356.1885986328125	1410.728271484375	550.4102783203125	348.7115783691406	1331.15869140625	706.5524291992188	285.8463745117188	1265.303588867188	505.5850524902344	459.033203125	1372.493286132812	538.0802612304688	507.2528991699219	1387.620849609375	625.6509399414062	579.7613525390625	1271.62109375	611.1753540039062	604.5442504882812	1076.680908203125	652.8460693359375	548.8779907226562	1049.569580078125	593.19140625	551.3668212890625	866.2926635742188	755.139404296875	621.3062744140625	852.5111694335938	714.4710693359375	613.1041259765625	973.6226806640625	678.6212158203125	612.3135986328125	766.8455810546875	729.2864990234375	569.5458984375	768.3910522460938	776.4746704101562	197.3581085205078	1390.201049804688	607.7734375	136.9835815429688	1324.25439453125	598.194580078125	84.83966827392578	1068.721435546875	653.8484497070312	175.5417785644531	1048.049072265625	627.8967895507812	123.5370941162109	899.9490356445312	838.98681640625	59.32902526855469	879.60791015625	808.5843505859375	70.36080169677734	1012.651184082031	697.9574584960938	119.8255615234375	735.7992553710938	895.51220703125	103.910026550293	807.6342163085938	893.3112182617188	59.23576354980469	795.907470703125	843.1539916992188	256.1973571777344	1591.328979492188	626.1890258789062	437.7100830078125	1610.397583007812	700.7566528320312	322.3275756835938	1609.97216796875	740.603271484375	400.9186401367188	1588.06005859375	558.6114501953125	528.7544555664062	967.0023803710938	604.4473876953125	170.4603729248047	962.8325805664062	612.9295043945312	228.8500518798828	971.419189453125	745.7726440429688	489.6813354492188	964.3433227539062	721.3380737304688	506.7464599609375	472.9896240234375	648.9149780273438	520.4005737304688	615.6055297851562	643.3018798828125	470.9342041015625	39.39534759521484	552.8599853515625	502.2130737304688	242.385009765625	601.2687377929688	402.8003540039062	40.07695770263672	767.12646484375	374.2371826171875	42.73212432861328	684.8173828125	480.0011901855469	37.90008163452148	679.463623046875	415.694580078125	36.84482192993164	513.5886840820312	198.8504028320312	471.9075927734375	643.56787109375	174.5229034423828	733.7100219726562	685.0291748046875	236.9676361083984	52.17997741699219	593.0494995117188	214.2277984619141	346.5707092285156	650.0626831054688	299.6648559570312	38.56908416748047	773.1104125976562	331.2754821777344	42.07833862304688	698.0962524414062	231.6185302734375	43.97246170043945	678.6556396484375	291.7907104492188	38.83162689208984	521.447021484375	556.002197265625	686.8309326171875	749.8670654296875	
493	4.92	281.9332885742188	987.6407470703125	528.3358154296875	413.2016906738281	979.6356811523438	519.8673095703125	343.7188720703125	1057.343505859375	526.1092529296875	347.4561157226562	1212.59814453125	760.8604125976562	346.2784118652344	1160.6044921875	515.1761474609375	355.6443481445312	1410.70849609375	550.8688354492188	348.6458740234375	1331.0869140625	707.0382080078125	285.2856140136719	1265.235473632812	506.2798156738281	458.4896850585938	1372.444702148438	538.3015747070312	506.9277954101562	1387.6376953125	625.7197265625	579.4248046875	1271.655151367188	610.9937744140625	604.4524536132812	1076.656127929688	652.400634765625	548.5228271484375	1049.609252929688	592.8987426757812	551.57373046875	866.34765625	754.9130249023438	621.2783813476562	852.515380859375	713.9913940429688	612.9249877929688	973.6190795898438	678.119873046875	612.4216918945312	766.8963623046875	729.0291748046875	569.9584350585938	768.56494140625	776.4129638671875	196.9926147460938	1390.113525390625	608.6597290039062	136.5970001220703	1324.24462890625	599.230712890625	84.51576995849609	1068.613403320312	654.8929443359375	175.1302947998047	1047.955688476562	628.636962890625	123.8676834106445	899.6044921875	839.7063598632812	59.46126556396484	879.4103393554688	809.5458984375	70.24955749511719	1012.541687011719	699.044677734375	120.1964492797852	735.1729125976562	895.5916137695312	104.334358215332	807.0449829101562	893.7688598632812	59.27322006225586	795.5791625976562	843.7330322265625	255.7535705566406	1591.109985351562	626.8341064453125	437.3530578613281	1610.605712890625	700.9468383789062	322.1293029785156	1609.983276367188	741.0880126953125	400.3271484375	1588.015014648438	558.9783935546875	528.231689453125	967.0065307617188	604.4933471679688	169.9326171875	962.7929077148438	613.8575439453125	228.7289581298828	971.3526611328125	746.639892578125	489.3699951171875	964.34326171875	721.4489135742188	506.5156860351562	473.0128784179688	649.1505737304688	520.2398071289062	615.6619873046875	643.5047607421875	470.9153442382812	39.4112434387207	552.8699340820312	502.1395874023438	242.4458160400391	601.4317016601562	402.7973022460938	40.07277297973633	767.1393432617188	374.2467956542969	42.73498153686523	684.82421875	479.9875793457031	37.90488815307617	679.4705200195312	415.6986999511719	36.85992431640625	513.6110229492188	198.2614135742188	471.8761291503906	642.8958129882812	174.2734680175781	733.6015014648438	685.3755493164062	236.9483337402344	52.06640625	593.06005859375	213.6929321289062	346.5844116210938	649.4586181640625	299.6437072753906	38.59812545776367	773.054931640625	331.2248840332031	42.13616561889648	698.0587768554688	231.5381011962891	43.94182968139648	678.6338500976562	291.7278747558594	38.78451538085938	521.3887329101562	556.224609375	686.9156494140625	750.1028442382812	
494	4.93	281.3313598632812	987.6776733398438	529.0114135742188	412.5827941894531	979.5986328125	520.2000732421875	343.1248779296875	1057.265747070312	526.5588989257812	347.4369201660156	1212.5390625	761.294677734375	345.5624694824219	1160.542602539062	515.6820678710938	355.0842895507812	1410.677612304688	551.3075561523438	348.5692749023438	1331.027099609375	707.5084838867188	284.7051391601562	1265.174682617188	506.95458984375	457.9453125	1372.393920898438	538.5004272460938	506.5940551757812	1387.652099609375	625.7506103515625	579.0662841796875	1271.6875	610.7675170898438	604.3174438476562	1076.635375976562	651.9307861328125	548.1508178710938	1049.640625	592.60693359375	551.8252563476562	866.4879760742188	754.8303833007812	621.2566528320312	852.5585327148438	713.6295776367188	612.7601928710938	973.6270751953125	677.6513671875	612.5394287109375	767.0206298828125	728.994384765625	570.4393310546875	768.8714599609375	776.5963134765625	196.6142883300781	1390.028930664062	609.5267333984375	136.2117614746094	1324.243408203125	600.2486572265625	84.19831085205078	1068.490600585938	655.8529663085938	174.7548370361328	1047.870971679688	629.3108520507812	124.2007827758789	899.1852416992188	840.276611328125	59.61116409301758	879.1248168945312	810.3653564453125	70.16966247558594	1012.412841796875	700.02880859375	120.5347595214844	734.441162109375	895.4364624023438	104.7532653808594	806.339111328125	894.0276489257812	59.30977249145508	795.1532592773438	844.1127319335938	255.2880401611328	1590.897583007812	627.4439697265625	436.9888916015625	1610.821533203125	701.14111328125	321.9345703125	1610.00244140625	741.5345458984375	399.7351989746094	1587.970092773438	559.3145141601562	527.7132568359375	967.036376953125	604.5748291015625	169.3196105957031	962.75341796875	614.6619262695312	228.5938720703125	971.291259765625	747.4749145507812	489.0337524414062	964.3463745117188	721.5740356445312	506.3059387207031	473.046630859375	649.3585205078125	520.0792236328125	615.7218017578125	643.6774291992188	470.9036254882812	39.4298210144043	552.879150390625	502.0622863769531	242.4982604980469	601.5679931640625	402.7947998046875	40.06930923461914	767.14794921875	374.2438049316406	42.7319221496582	684.8294067382812	479.9783935546875	37.90753555297852	679.4765014648438	415.7168884277344	36.87843704223633	513.634033203125	197.7139129638672	471.8313293457031	642.3380126953125	174.0523681640625	733.497314453125	685.7389526367188	236.9494934082031	51.93761825561523	593.074951171875	213.2189331054688	346.5670166015625	648.9612426757812	299.6235046386719	38.62405395507812	773.0061645507812	331.167724609375	42.18302536010742	698.0286254882812	231.4571685791016	43.90982818603516	678.6148681640625	291.6649169921875	38.74308013916016	521.3173217773438	556.4517822265625	687.0791015625	750.7092895507812	
